# xmcd
#
# Track frame offsets:
#	182
#	17420
#	35837
#	51677
#	65235
#	82520
#	93442
#	111107
#	123192
#	140032
#
# Disc length: 2012 seconds
#
# Revision: 0
# Processed by: cddbd v1.5.2PL0 Copyright (c) Steve Scherf et al.
# Submitted via: audiograbber 1.83.01
#
DISCID=8807da0a
DTITLE=Johnny Lee - The Best Of
DYEAR=1990
DGENRE=Country
TTITLE0=Lookin' For Love
TTITLE1=Cherokee Fiddle
TTITLE2=Dangerously Lonely
TTITLE3=Money In My Pocket
TTITLE4=You Can't Fly Like An Eagle
TTITLE5=Heart To Heart Talk
TTITLE6=I Can Be A Heartbreaker Too
TTITLE7=Maybe I Won't Love You Anymore
TTITLE8=Cross My Heart
TTITLE9=Treta Her Like A Lady
EXTD=
EXTT0=
EXTT1=
EXTT2=
EXTT3=
EXTT4=
EXTT5=
EXTT6=
EXTT7=
EXTT8=
EXTT9=
PLAYORDER=
